<?xml version="1.0" encoding="iso-8859-1"?>
<!-- Generator: Adobe Illustrator 21.1.0, SVG Export Plug-In . SVG Version: 6.00 Build 0)  -->
<svg version="1.1" id="Layer_1" xmlns="http://www.w3.org/2000/svg" xmlns:xlink="http://www.w3.org/1999/xlink" x="0px" y="0px"
	 viewBox="0 0 100.353 100.353" style="enable-background:new 0 0 100.353 100.353;" xml:space="preserve">
<g>
	<path d="M89.958,57.494c-1.411-1.411-3.287-2.188-5.283-2.188c-0.014,0-0.028,0-0.042,0.001c-0.07-0.003-6.328,0.087-9.306-6.909
		c-0.851-2-1.123-4.251-1.208-5.299c1.812-2.03,2.801-4.618,2.801-7.359c0-5.661-4.271-10.335-9.76-10.989V13.749
		c0-0.829-0.672-1.5-1.5-1.5H8.903c-0.829,0-1.5,0.671-1.5,1.5v73.349c0,0.828,0.671,1.5,1.5,1.5H65.66c0.828,0,1.5-0.672,1.5-1.5
		V76.122h20.984c0.828,0,1.5-0.672,1.5-1.5v-4.521h1c0.828,0,1.5-0.672,1.5-1.5v-5.825C92.146,60.781,91.369,58.906,89.958,57.494z
		 M73.92,35.74c0,2.168-0.85,4.205-2.393,5.734c-0.293,0.291-0.454,0.688-0.444,1.101c0.004,0.151,0.104,3.752,1.484,6.997
		c3.701,8.699,11.539,8.732,12.121,8.733c1.189,0.004,2.308,0.469,3.148,1.31c0.844,0.844,1.309,1.966,1.308,3.159v4.326h-0.673
		c-0.105-0.023-0.214-0.038-0.327-0.038s-0.221,0.015-0.327,0.038H42.541v-4.326c0-2.45,1.982-4.447,4.427-4.47
		c0.882,0.049,8.148,0.153,11.984-8.496c1.315-2.963,1.588-7.052,1.599-7.225c0.027-0.428-0.131-0.848-0.434-1.152
		c-1.515-1.523-2.349-3.545-2.349-5.692c0-4.453,3.622-8.075,8.074-8.075C70.297,27.665,73.92,31.287,73.92,35.74z M64.16,85.598
		H10.403V15.249H64.16v9.558c-5.309,0.815-9.392,5.4-9.392,10.933c0,2.705,0.965,5.265,2.732,7.283
		c-0.121,1.164-0.464,3.707-1.291,5.569c-3.113,7.02-8.85,6.732-9.083,6.717c-0.039-0.003-0.079-0.005-0.118-0.005
		c-4.118,0-7.469,3.351-7.469,7.47v5.826c0,0.828,0.671,1.5,1.5,1.5h1.182l0.037,4.533c0.007,0.824,0.676,1.488,1.5,1.488h20.4
		V85.598z M86.645,73.122H66.028c-0.118-0.03-0.24-0.051-0.368-0.051s-0.249,0.021-0.368,0.051H45.248l-0.025-3.021h41.422V73.122z"
		/>
	<path d="M35.855,27.793H16.782c-0.829,0-1.5,0.671-1.5,1.5s0.671,1.5,1.5,1.5h19.073c0.829,0,1.5-0.671,1.5-1.5
		S36.684,27.793,35.855,27.793z"/>
	<path d="M35.855,35.477H16.782c-0.829,0-1.5,0.671-1.5,1.5s0.671,1.5,1.5,1.5h19.073c0.829,0,1.5-0.671,1.5-1.5
		S36.684,35.477,35.855,35.477z"/>
	<path d="M35.855,43.435H16.782c-0.829,0-1.5,0.671-1.5,1.5s0.671,1.5,1.5,1.5h19.073c0.829,0,1.5-0.671,1.5-1.5
		S36.684,43.435,35.855,43.435z"/>
</g>
</svg>
